<mxfile host="app.diagrams.net" modified="2023-11-07T03:16:35.770Z" agent="Mozilla/5.0 (Windows NT 10.0; Win64; x64) AppleWebKit/537.36 (KHTML, like Gecko) Chrome/118.0.0.0 Safari/537.36" etag="FSY7nNfABsyPMlsHs_QZ" version="22.0.8" type="github">
  <diagram name="Page-1" id="9b1FMyf4jC-_zoPjw3e7">
    <mxGraphModel dx="2035" dy="661" grid="1" gridSize="10" guides="1" tooltips="1" connect="1" arrows="1" fold="1" page="1" pageScale="1" pageWidth="850" pageHeight="1100" math="0" shadow="0">
      <root>
        <mxCell id="0" />
        <mxCell id="1" parent="0" />
        <mxCell id="CS_ge_p3yxhzeWj5m4wG-1" value="WaitressInvoker" style="swimlane;fontStyle=0;childLayout=stackLayout;horizontal=1;startSize=26;fillColor=none;horizontalStack=0;resizeParent=1;resizeParentMax=0;resizeLast=0;collapsible=1;marginBottom=0;whiteSpace=wrap;html=1;" parent="1" vertex="1">
          <mxGeometry x="150" y="10" width="220" height="104" as="geometry" />
        </mxCell>
        <mxCell id="CS_ge_p3yxhzeWj5m4wG-2" value="+ orders: ArrayList&amp;lt;OrderSlip&amp;gt;" style="text;strokeColor=none;fillColor=none;align=left;verticalAlign=top;spacingLeft=4;spacingRight=4;overflow=hidden;rotatable=0;points=[[0,0.5],[1,0.5]];portConstraint=eastwest;whiteSpace=wrap;html=1;" parent="CS_ge_p3yxhzeWj5m4wG-1" vertex="1">
          <mxGeometry y="26" width="220" height="26" as="geometry" />
        </mxCell>
        <mxCell id="CS_ge_p3yxhzeWj5m4wG-3" value="+ orderUp(): void" style="text;strokeColor=none;fillColor=none;align=left;verticalAlign=top;spacingLeft=4;spacingRight=4;overflow=hidden;rotatable=0;points=[[0,0.5],[1,0.5]];portConstraint=eastwest;whiteSpace=wrap;html=1;" parent="CS_ge_p3yxhzeWj5m4wG-1" vertex="1">
          <mxGeometry y="52" width="220" height="26" as="geometry" />
        </mxCell>
        <mxCell id="CS_ge_p3yxhzeWj5m4wG-53" value="+ takeOrder(): Void" style="text;strokeColor=none;fillColor=none;align=left;verticalAlign=top;spacingLeft=4;spacingRight=4;overflow=hidden;rotatable=0;points=[[0,0.5],[1,0.5]];portConstraint=eastwest;whiteSpace=wrap;html=1;" parent="CS_ge_p3yxhzeWj5m4wG-1" vertex="1">
          <mxGeometry y="78" width="220" height="26" as="geometry" />
        </mxCell>
        <mxCell id="CS_ge_p3yxhzeWj5m4wG-5" value="&amp;lt;&amp;lt;OrderSlip&amp;gt;&amp;gt;" style="swimlane;fontStyle=0;childLayout=stackLayout;horizontal=1;startSize=26;fillColor=none;horizontalStack=0;resizeParent=1;resizeParentMax=0;resizeLast=0;collapsible=1;marginBottom=0;whiteSpace=wrap;html=1;" parent="1" vertex="1">
          <mxGeometry x="520" y="40" width="140" height="52" as="geometry" />
        </mxCell>
        <mxCell id="CS_ge_p3yxhzeWj5m4wG-6" value="+ orderUp() : void" style="text;strokeColor=none;fillColor=none;align=left;verticalAlign=top;spacingLeft=4;spacingRight=4;overflow=hidden;rotatable=0;points=[[0,0.5],[1,0.5]];portConstraint=eastwest;whiteSpace=wrap;html=1;" parent="CS_ge_p3yxhzeWj5m4wG-5" vertex="1">
          <mxGeometry y="26" width="140" height="26" as="geometry" />
        </mxCell>
        <mxCell id="CS_ge_p3yxhzeWj5m4wG-13" value="Burger" style="swimlane;fontStyle=0;childLayout=stackLayout;horizontal=1;startSize=26;fillColor=none;horizontalStack=0;resizeParent=1;resizeParentMax=0;resizeLast=0;collapsible=1;marginBottom=0;whiteSpace=wrap;html=1;" parent="1" vertex="1">
          <mxGeometry x="520" y="260" width="140" height="78" as="geometry" />
        </mxCell>
        <mxCell id="kNCBHGdG4qvosjfeMohc-6" value="+ cook: CookReceiver" style="text;strokeColor=none;fillColor=none;align=left;verticalAlign=top;spacingLeft=4;spacingRight=4;overflow=hidden;rotatable=0;points=[[0,0.5],[1,0.5]];portConstraint=eastwest;whiteSpace=wrap;html=1;" vertex="1" parent="CS_ge_p3yxhzeWj5m4wG-13">
          <mxGeometry y="26" width="140" height="26" as="geometry" />
        </mxCell>
        <mxCell id="CS_ge_p3yxhzeWj5m4wG-14" value="+ orderUp()&amp;nbsp;: void" style="text;strokeColor=none;fillColor=none;align=left;verticalAlign=top;spacingLeft=4;spacingRight=4;overflow=hidden;rotatable=0;points=[[0,0.5],[1,0.5]];portConstraint=eastwest;whiteSpace=wrap;html=1;" parent="CS_ge_p3yxhzeWj5m4wG-13" vertex="1">
          <mxGeometry y="52" width="140" height="26" as="geometry" />
        </mxCell>
        <mxCell id="Drj6p-o2rlSssU2dloH5-4" value="CustomerClient" style="swimlane;fontStyle=0;childLayout=stackLayout;horizontal=1;startSize=26;fillColor=none;horizontalStack=0;resizeParent=1;resizeParentMax=0;resizeLast=0;collapsible=1;marginBottom=0;whiteSpace=wrap;html=1;" parent="1" vertex="1">
          <mxGeometry x="-60" y="10" width="140" height="78" as="geometry" />
        </mxCell>
        <mxCell id="Drj6p-o2rlSssU2dloH5-6" value="+ waitress: Waitress" style="text;strokeColor=none;fillColor=none;align=left;verticalAlign=top;spacingLeft=4;spacingRight=4;overflow=hidden;rotatable=0;points=[[0,0.5],[1,0.5]];portConstraint=eastwest;whiteSpace=wrap;html=1;" parent="Drj6p-o2rlSssU2dloH5-4" vertex="1">
          <mxGeometry y="26" width="140" height="26" as="geometry" />
        </mxCell>
        <mxCell id="Drj6p-o2rlSssU2dloH5-5" value="+ createOrder()" style="text;strokeColor=none;fillColor=none;align=left;verticalAlign=top;spacingLeft=4;spacingRight=4;overflow=hidden;rotatable=0;points=[[0,0.5],[1,0.5]];portConstraint=eastwest;whiteSpace=wrap;html=1;" parent="Drj6p-o2rlSssU2dloH5-4" vertex="1">
          <mxGeometry y="52" width="140" height="26" as="geometry" />
        </mxCell>
        <mxCell id="Drj6p-o2rlSssU2dloH5-8" value="CookReceiver" style="swimlane;fontStyle=0;childLayout=stackLayout;horizontal=1;startSize=26;fillColor=none;horizontalStack=0;resizeParent=1;resizeParentMax=0;resizeLast=0;collapsible=1;marginBottom=0;whiteSpace=wrap;html=1;" parent="1" vertex="1">
          <mxGeometry x="150" y="360" width="140" height="78" as="geometry" />
        </mxCell>
        <mxCell id="Drj6p-o2rlSssU2dloH5-9" value="+ makeBurger(): void" style="text;strokeColor=none;fillColor=none;align=left;verticalAlign=top;spacingLeft=4;spacingRight=4;overflow=hidden;rotatable=0;points=[[0,0.5],[1,0.5]];portConstraint=eastwest;whiteSpace=wrap;html=1;" parent="Drj6p-o2rlSssU2dloH5-8" vertex="1">
          <mxGeometry y="26" width="140" height="26" as="geometry" />
        </mxCell>
        <mxCell id="Drj6p-o2rlSssU2dloH5-10" value="+ makeShake(): void" style="text;strokeColor=none;fillColor=none;align=left;verticalAlign=top;spacingLeft=4;spacingRight=4;overflow=hidden;rotatable=0;points=[[0,0.5],[1,0.5]];portConstraint=eastwest;whiteSpace=wrap;html=1;" parent="Drj6p-o2rlSssU2dloH5-8" vertex="1">
          <mxGeometry y="52" width="140" height="26" as="geometry" />
        </mxCell>
        <mxCell id="Drj6p-o2rlSssU2dloH5-13" style="edgeStyle=orthogonalEdgeStyle;rounded=0;orthogonalLoop=1;jettySize=auto;html=1;entryX=0.014;entryY=1.064;entryDx=0;entryDy=0;entryPerimeter=0;exitX=0.995;exitY=1.042;exitDx=0;exitDy=0;exitPerimeter=0;" parent="1" source="Drj6p-o2rlSssU2dloH5-5" target="CS_ge_p3yxhzeWj5m4wG-14" edge="1">
          <mxGeometry relative="1" as="geometry">
            <mxPoint x="520" y="425" as="targetPoint" />
            <Array as="points">
              <mxPoint x="79" y="101" />
              <mxPoint x="90" y="101" />
              <mxPoint x="90" y="500" />
              <mxPoint x="520" y="500" />
              <mxPoint x="520" y="440" />
              <mxPoint x="522" y="440" />
            </Array>
            <mxPoint x="80" y="101" as="sourcePoint" />
          </mxGeometry>
        </mxCell>
        <mxCell id="Drj6p-o2rlSssU2dloH5-14" style="edgeStyle=orthogonalEdgeStyle;rounded=0;orthogonalLoop=1;jettySize=auto;html=1;exitX=0;exitY=0.5;exitDx=0;exitDy=0;entryX=1;entryY=0.5;entryDx=0;entryDy=0;startArrow=diamond;startFill=0;" parent="1" source="CS_ge_p3yxhzeWj5m4wG-14" target="Drj6p-o2rlSssU2dloH5-9" edge="1">
          <mxGeometry relative="1" as="geometry" />
        </mxCell>
        <mxCell id="Drj6p-o2rlSssU2dloH5-15" style="edgeStyle=orthogonalEdgeStyle;rounded=0;orthogonalLoop=1;jettySize=auto;html=1;entryX=-0.005;entryY=0.115;entryDx=0;entryDy=0;entryPerimeter=0;startArrow=diamond;startFill=0;" parent="1" source="CS_ge_p3yxhzeWj5m4wG-2" target="CS_ge_p3yxhzeWj5m4wG-5" edge="1">
          <mxGeometry relative="1" as="geometry" />
        </mxCell>
        <mxCell id="kNCBHGdG4qvosjfeMohc-1" style="edgeStyle=orthogonalEdgeStyle;rounded=0;orthogonalLoop=1;jettySize=auto;html=1;entryX=0;entryY=0.5;entryDx=0;entryDy=0;startArrow=diamond;startFill=0;" edge="1" parent="1" source="Drj6p-o2rlSssU2dloH5-6" target="CS_ge_p3yxhzeWj5m4wG-3">
          <mxGeometry relative="1" as="geometry" />
        </mxCell>
        <mxCell id="kNCBHGdG4qvosjfeMohc-12" style="edgeStyle=orthogonalEdgeStyle;rounded=0;orthogonalLoop=1;jettySize=auto;html=1;entryX=1;entryY=0.5;entryDx=0;entryDy=0;" edge="1" parent="1" source="kNCBHGdG4qvosjfeMohc-7" target="CS_ge_p3yxhzeWj5m4wG-6">
          <mxGeometry relative="1" as="geometry" />
        </mxCell>
        <mxCell id="kNCBHGdG4qvosjfeMohc-7" value="Shake" style="swimlane;fontStyle=0;childLayout=stackLayout;horizontal=1;startSize=26;fillColor=none;horizontalStack=0;resizeParent=1;resizeParentMax=0;resizeLast=0;collapsible=1;marginBottom=0;whiteSpace=wrap;html=1;" vertex="1" parent="1">
          <mxGeometry x="680" y="260" width="140" height="78" as="geometry" />
        </mxCell>
        <mxCell id="kNCBHGdG4qvosjfeMohc-8" value="+ cook: CookReceiver" style="text;strokeColor=none;fillColor=none;align=left;verticalAlign=top;spacingLeft=4;spacingRight=4;overflow=hidden;rotatable=0;points=[[0,0.5],[1,0.5]];portConstraint=eastwest;whiteSpace=wrap;html=1;" vertex="1" parent="kNCBHGdG4qvosjfeMohc-7">
          <mxGeometry y="26" width="140" height="26" as="geometry" />
        </mxCell>
        <mxCell id="kNCBHGdG4qvosjfeMohc-9" value="+ orderUp()&amp;nbsp;: void" style="text;strokeColor=none;fillColor=none;align=left;verticalAlign=top;spacingLeft=4;spacingRight=4;overflow=hidden;rotatable=0;points=[[0,0.5],[1,0.5]];portConstraint=eastwest;whiteSpace=wrap;html=1;" vertex="1" parent="kNCBHGdG4qvosjfeMohc-7">
          <mxGeometry y="52" width="140" height="26" as="geometry" />
        </mxCell>
        <mxCell id="kNCBHGdG4qvosjfeMohc-11" style="edgeStyle=orthogonalEdgeStyle;rounded=0;orthogonalLoop=1;jettySize=auto;html=1;entryX=0.009;entryY=1.005;entryDx=0;entryDy=0;entryPerimeter=0;" edge="1" parent="1" source="CS_ge_p3yxhzeWj5m4wG-13" target="CS_ge_p3yxhzeWj5m4wG-6">
          <mxGeometry relative="1" as="geometry" />
        </mxCell>
        <mxCell id="kNCBHGdG4qvosjfeMohc-14" style="edgeStyle=orthogonalEdgeStyle;rounded=0;orthogonalLoop=1;jettySize=auto;html=1;exitX=0;exitY=1;exitDx=0;exitDy=0;entryX=1.016;entryY=0.698;entryDx=0;entryDy=0;entryPerimeter=0;startArrow=diamond;startFill=0;" edge="1" parent="1" source="kNCBHGdG4qvosjfeMohc-7" target="Drj6p-o2rlSssU2dloH5-9">
          <mxGeometry relative="1" as="geometry" />
        </mxCell>
        <mxCell id="kNCBHGdG4qvosjfeMohc-16" style="edgeStyle=orthogonalEdgeStyle;rounded=0;orthogonalLoop=1;jettySize=auto;html=1;exitX=0.995;exitY=1.042;exitDx=0;exitDy=0;exitPerimeter=0;entryX=0.145;entryY=1.17;entryDx=0;entryDy=0;entryPerimeter=0;" edge="1" parent="1" target="kNCBHGdG4qvosjfeMohc-9">
          <mxGeometry relative="1" as="geometry">
            <mxPoint x="780" y="360" as="targetPoint" />
            <Array as="points">
              <mxPoint x="80" y="100" />
              <mxPoint x="91" y="100" />
              <mxPoint x="91" y="499" />
              <mxPoint x="521" y="499" />
              <mxPoint x="521" y="439" />
              <mxPoint x="523" y="439" />
              <mxPoint x="523" y="360" />
              <mxPoint x="700" y="360" />
            </Array>
            <mxPoint x="80" y="88" as="sourcePoint" />
          </mxGeometry>
        </mxCell>
      </root>
    </mxGraphModel>
  </diagram>
</mxfile>
